<?xml version="1.0" encoding="utf-8"?>
<!-- Generated by IcoMoon.io -->
<!DOCTYPE svg PUBLIC "-//W3C//DTD SVG 1.1//EN" "http://www.w3.org/Graphics/SVG/1.1/DTD/svg11.dtd">
<svg version="1.1" xmlns="http://www.w3.org/2000/svg" xmlns:xlink="http://www.w3.org/1999/xlink" width="512" height="512" viewBox="0 0 512 512">
<g>
</g>
	<path d="M216.105 238.582c1.607 0 3.082 0.379 4.332 1.28 1.27 0.696 2.53 1.782 3.43 3.236 0.542 0.738 1.065 2.161 1.464 3.983l14.439-3.625c-1.833-6.298-4.71-10.998-8.499-14.080-3.779-3.062-9.011-4.7-15.513-4.7-8.489 0-14.981 2.703-19.681 8.141-4.7 5.222-7.035 13.005-7.035 22.917 0 7.383 1.423 13.517 3.952 18.422 2.724 4.68 5.775 8.079 9.411 9.902 3.594 1.976 8.294 2.898 14.060 2.898 4.7 0 8.469-0.717 11.561-2.345 3.062-1.464 5.601-3.799 7.742-6.882 1.997-3.041 3.44-6.82 4.526-11.561l-14.254-4.844c-0.717 3.758-1.997 6.676-3.441 8.642-1.628 1.997-3.963 3.062-7.045 3.062-3.246 0-5.765-1.239-7.577-3.779-1.628-2.498-2.499-7.024-2.499-13.721 0-5.397 0.686-9.38 2.15-11.879 1.987-3.267 4.679-5.069 8.478-5.069z" fill="#000000" />
	<path d="M248.238 225.782v60.098h16.22v-14.623l8.325-10.096 11.008 24.719h20.039l-20.039-37.376 19.108-22.722h-21.453l-16.988 22.722v-22.722z" fill="#000000" />
	<path d="M163.062 225.782h16.231v60.098h-16.231v-60.099z" fill="#000000" />
	<path d="M115.579 185.897h280.822v5.601h-280.822v-5.601z" fill="#000000" />
	<path d="M122.255 285.88h16.251v-45.322h16.609v-14.776h-49.296v14.776h16.435z" fill="#000000" />
	<path d="M115.579 203.038h280.822v5.438h-280.822v-5.438z" fill="#000000" />
	<path d="M352.727 238.582v-12.8h-43.49v60.099h44.216v-13.538h-27.966v-11.899h25.231v-12.288h-25.231v-9.575z" fill="#000000" />
	<path d="M429.066 166.4c0-1.095 0.185-2.345 0.185-3.42h-348.498c0.205 0.901 0.205 1.782 0.205 2.724 0 16.404-12.626 29.922-28.139 29.922-0.574 0-1.096 0-1.485 0v124.365c0.379 0 0.911 0 1.485 0 15.124 0 27.576 12.82 28.139 28.877h348.303c0.901-15.698 12.995-27.955 27.966-27.955 1.26 0 2.345 0 3.43 0.164v-124.897c-1.075 0.185-2.171 0.358-3.43 0.358-15.514 0-28.16-13.537-28.16-30.137zM436.664 313.324c-0.921 0-2.017-0.205-3.072-0.205-13.179 0-23.829 11.018-24.73 24.924h-307.333c-0.573-14.264-11.407-25.661-24.924-25.661-0.348 0-0.901 0-1.27 0v-109.68c0.368 0 0.921 0 1.27 0 13.742 0 24.924-11.919 24.924-26.542 0-0.901 0-1.638-0.195-2.56h307.692c-0.174 1.116-0.174 2.202-0.174 3.256 0 14.643 11.008 26.542 24.73 26.542 1.055 0 2.151 0 3.072-0.185v110.11z" fill="#000000" />
	<path d="M358.512 240.558h16.61v45.322h16.231v-45.322h16.404v-14.776h-49.244z" fill="#000000" />
	<path d="M115.579 322.14h280.822v5.601h-280.822v-5.601z" fill="#000000" />
	<path d="M255.97 3.604c-139.356 0-252.365 112.999-252.365 252.416 0 139.356 112.999 252.375 252.365 252.375 139.417 0 252.416-113.019 252.416-252.375 0-139.417-112.999-252.416-252.416-252.416zM477.255 327.219c-16.414 0-29.962 13.721-30.863 31.017h-382.812c-0.686-17.879-14.244-31.938-31.017-31.938-0.553 0-1.085 0-1.598 0v-136.796c0.512 0.205 1.055 0.205 1.598 0.205 17.172 0 31.017-14.797 31.017-33.044 0-0.901 0-1.976-0.144-2.877h383.12c-0.164 1.26-0.338 2.519-0.338 3.963 0 18.064 13.896 32.84 31.038 32.84 1.25 0 2.519 0 3.779-0.185v137.175c-1.25-0.195-2.529-0.358-3.779-0.358z" fill="#000000" />
	<path d="M115.579 305.203h280.822v5.417h-280.822v-5.417z" fill="#000000" />
</svg>
